<svg width="32" height="24" viewBox="0 0 32 24" fill="none" xmlns="http://www.w3.org/2000/svg">
<mask id="mask0_6512_99631" style="mask-type:alpha" maskUnits="userSpaceOnUse" x="0" y="0" width="32" height="24">
<rect width="32" height="24" rx="4" fill="white"/>
</mask>
<g mask="url(#mask0_6512_99631)">
<path fill-rule="evenodd" clip-rule="evenodd" d="M0 0H32V24H0V0Z" fill="#F7FCFF"/>
<path fill-rule="evenodd" clip-rule="evenodd" d="M0 14.6666V16.6666H32V14.6666H0Z" fill="#E31D1C"/>
<path fill-rule="evenodd" clip-rule="evenodd" d="M0 18.3334V20.3334H32V18.3334H0Z" fill="#E31D1C"/>
<path fill-rule="evenodd" clip-rule="evenodd" d="M0 7.33337V9.33337H32V7.33337H0Z" fill="#E31D1C"/>
<path fill-rule="evenodd" clip-rule="evenodd" d="M0 22V24H32V22H0Z" fill="#E31D1C"/>
<path fill-rule="evenodd" clip-rule="evenodd" d="M0 11V13H32V11H0Z" fill="#E31D1C"/>
<path fill-rule="evenodd" clip-rule="evenodd" d="M0 0V2H32V0H0Z" fill="#E31D1C"/>
<path fill-rule="evenodd" clip-rule="evenodd" d="M0 3.66663V5.66663H32V3.66663H0Z" fill="#E31D1C"/>
<rect width="20" height="13" fill="#2E42A5"/>
<path fill-rule="evenodd" clip-rule="evenodd" d="M1.72123 2.93871L0.995355 3.44759L1.24042 2.54198L0.595703 1.96807H1.43779L1.72022 1.229L2.05139 1.96807H2.76925L2.20521 2.54198L2.42357 3.44759L1.72123 2.93871ZM5.72068 2.93871L4.9948 3.44759L5.23986 2.54198L4.59514 1.96807H5.43723L5.71966 1.229L6.05083 1.96807H6.76869L6.20465 2.54198L6.42301 3.44759L5.72068 2.93871ZM8.99591 3.44759L9.72179 2.93871L10.4241 3.44759L10.2058 2.54198L10.7698 1.96807H10.0519L9.72078 1.229L9.43835 1.96807H8.59626L9.24098 2.54198L8.99591 3.44759ZM13.7212 2.93871L12.9954 3.44759L13.2404 2.54198L12.5957 1.96807H13.4378L13.7202 1.229L14.0514 1.96807H14.7692L14.2052 2.54198L14.4236 3.44759L13.7212 2.93871ZM0.995355 7.44756L1.72123 6.93867L2.42357 7.44756L2.20521 6.54195L2.76925 5.96804H2.05139L1.72022 5.22897L1.43779 5.96804H0.595703L1.24042 6.54195L0.995355 7.44756ZM5.72068 6.93867L4.9948 7.44756L5.23986 6.54195L4.59514 5.96804H5.43723L5.71966 5.22897L6.05083 5.96804H6.76869L6.20465 6.54195L6.42301 7.44756L5.72068 6.93867ZM8.99591 7.44756L9.72179 6.93867L10.4241 7.44756L10.2058 6.54195L10.7698 5.96804H10.0519L9.72078 5.22897L9.43835 5.96804H8.59626L9.24098 6.54195L8.99591 7.44756ZM13.7212 6.93867L12.9954 7.44756L13.2404 6.54195L12.5957 5.96804H13.4378L13.7202 5.22897L14.0514 5.96804H14.7692L14.2052 6.54195L14.4236 7.44756L13.7212 6.93867ZM0.995355 11.4476L1.72123 10.9387L2.42357 11.4476L2.20521 10.542L2.76925 9.96811H2.05139L1.72022 9.22904L1.43779 9.96811H0.595703L1.24042 10.542L0.995355 11.4476ZM5.72068 10.9387L4.9948 11.4476L5.23986 10.542L4.59514 9.96811H5.43723L5.71966 9.22904L6.05083 9.96811H6.76869L6.20465 10.542L6.42301 11.4476L5.72068 10.9387ZM8.99591 11.4476L9.72179 10.9387L10.4241 11.4476L10.2058 10.542L10.7698 9.96811H10.0519L9.72078 9.22904L9.43835 9.96811H8.59626L9.24098 10.542L8.99591 11.4476ZM13.7212 10.9387L12.9954 11.4476L13.2404 10.542L12.5957 9.96811H13.4378L13.7202 9.22904L14.0514 9.96811H14.7692L14.2052 10.542L14.4236 11.4476L13.7212 10.9387ZM16.9948 3.44759L17.7207 2.93871L18.423 3.44759L18.2047 2.54198L18.7687 1.96807H18.0508L17.7197 1.229L17.4372 1.96807H16.5951L17.2399 2.54198L16.9948 3.44759ZM17.7207 6.93867L16.9948 7.44756L17.2399 6.54195L16.5951 5.96804H17.4372L17.7197 5.22897L18.0508 5.96804H18.7687L18.2047 6.54195L18.423 7.44756L17.7207 6.93867ZM16.9948 11.4476L17.7207 10.9387L18.423 11.4476L18.2047 10.542L18.7687 9.96811H18.0508L17.7197 9.22904L17.4372 9.96811H16.5951L17.2399 10.542L16.9948 11.4476ZM3.72179 4.93874L2.99591 5.44763L3.24098 4.54202L2.59626 3.96811H3.43835L3.72078 3.22904L4.05195 3.96811H4.7698L4.20577 4.54202L4.42413 5.44763L3.72179 4.93874ZM6.99535 5.44763L7.72123 4.93874L8.42357 5.44763L8.20521 4.54202L8.76925 3.96811H8.05139L7.72022 3.22904L7.43779 3.96811H6.5957L7.24042 4.54202L6.99535 5.44763ZM11.7207 4.93874L10.9948 5.44763L11.2399 4.54202L10.5951 3.96811H11.4372L11.7197 3.22904L12.0508 3.96811H12.7687L12.2047 4.54202L12.423 5.44763L11.7207 4.93874ZM2.99591 9.44759L3.72179 8.93871L4.42413 9.44759L4.20577 8.54198L4.7698 7.96807H4.05195L3.72078 7.229L3.43835 7.96807H2.59626L3.24098 8.54198L2.99591 9.44759ZM7.72123 8.93871L6.99535 9.44759L7.24042 8.54198L6.5957 7.96807H7.43779L7.72022 7.229L8.05139 7.96807H8.76925L8.20521 8.54198L8.42357 9.44759L7.72123 8.93871ZM10.9948 9.44759L11.7207 8.93871L12.423 9.44759L12.2047 8.54198L12.7687 7.96807H12.0508L11.7197 7.229L11.4372 7.96807H10.5951L11.2399 8.54198L10.9948 9.44759ZM15.7218 4.93874L14.9959 5.44763L15.241 4.54202L14.5963 3.96811H15.4383L15.7208 3.22904L16.0519 3.96811H16.7698L16.2058 4.54202L16.4241 5.44763L15.7218 4.93874ZM14.9959 9.44759L15.7218 8.93871L16.4241 9.44759L16.2058 8.54198L16.7698 7.96807H16.0519L15.7208 7.229L15.4383 7.96807H14.5963L15.241 8.54198L14.9959 9.44759Z" fill="#F7FCFF"/>
</g>
</svg>
