<svg width="24" height="24" viewBox="0 0 24 24" fill="none" xmlns="http://www.w3.org/2000/svg">
<path d="M12.3214 21C9.84919 21 7.47827 20.0179 5.73017 18.2698C3.98207 16.5217 3 14.1508 3 11.6786C3 7.90186 5.16963 4.51563 8.52894 3.05354C8.64734 3.00194 8.77853 2.9872 8.90542 3.01123C9.03231 3.03527 9.14903 3.09697 9.24035 3.18829C9.33167 3.27961 9.39337 3.39632 9.4174 3.52322C9.44144 3.65011 9.4267 3.7813 9.3751 3.89969C8.98939 4.78522 8.78568 5.91946 8.78568 7.17865C8.78568 11.6095 12.3905 15.2143 16.8214 15.2143C18.0805 15.2143 19.2148 15.0106 20.1003 14.6249C20.2187 14.5733 20.3499 14.5586 20.4768 14.5826C20.6037 14.6066 20.7204 14.6683 20.8117 14.7597C20.903 14.851 20.9647 14.9677 20.9888 15.0946C21.0128 15.2215 20.9981 15.3527 20.9465 15.4711C19.4844 18.8304 16.0981 21 12.3214 21Z" fill="#212433"/>
</svg>
