<svg width="200" height="32" viewBox="0 0 200 32" fill="none" xmlns="http://www.w3.org/2000/svg">
<path d="M13.0242 31.9906L4.33761 23.2985C1.56028 20.5195 0 16.7502 0 12.8199C0 8.88978 1.56028 5.12053 4.33761 2.34144L6.67234 0.00524902L15.3638 8.7022C18.1389 11.4817 19.6974 15.2502 19.6965 19.1794C19.6956 23.1083 18.1354 26.8761 15.3589 29.6543L13.0242 31.9906Z" fill="url(#paint0_linear_7049_98338)"/>
<path d="M10.6911 8.70185L19.3875 0L21.7223 2.3362C23.0989 3.71244 24.1909 5.34667 24.936 7.14549C25.6812 8.94432 26.0647 10.8724 26.0647 12.8197C26.0647 14.7669 25.6812 16.695 24.936 18.4939C24.1909 20.2926 23.0989 21.9268 21.7223 23.3031L13.0307 32L10.6911 29.659C7.91381 26.8798 6.35352 23.1106 6.35352 19.1804C6.35352 15.2502 7.91381 11.4809 10.6911 8.70185Z" fill="url(#paint1_linear_7049_98338)"/>
<path d="M98.3131 25C98.1398 25 98.0272 24.9134 97.9752 24.74L97.1955 22.192C97.1609 22.1227 97.1175 22.088 97.0656 22.088H90.6721C90.6201 22.088 90.5768 22.1227 90.5421 22.192L89.7884 24.74C89.7364 24.9134 89.6238 25 89.4505 25H86.1498C86.0459 25 85.9679 24.974 85.9159 24.922C85.8639 24.8527 85.8553 24.7574 85.8899 24.636L91.5037 7.06004C91.5557 6.88671 91.6683 6.80004 91.8416 6.80004H95.922C96.0953 6.80004 96.2079 6.88671 96.2599 7.06004L101.874 24.636C101.891 24.6707 101.9 24.714 101.9 24.766C101.9 24.922 101.804 25 101.614 25H98.3131ZM91.4777 19.098C91.4604 19.202 91.4951 19.254 91.5817 19.254H96.1559C96.2599 19.254 96.2945 19.202 96.2599 19.098L93.9208 11.376C93.9035 11.3067 93.8775 11.2807 93.8428 11.298C93.8082 11.298 93.7822 11.324 93.7649 11.376L91.4777 19.098Z" fill="#484848"/>
<path d="M110.019 25.208C108.668 25.208 107.481 24.948 106.459 24.428C105.436 23.8907 104.648 23.1454 104.094 22.192C103.539 21.2387 103.262 20.138 103.262 18.89V12.884C103.262 11.636 103.539 10.5354 104.094 9.58204C104.648 8.62871 105.436 7.89204 106.459 7.37204C107.481 6.85204 108.668 6.59204 110.019 6.59204C111.353 6.59204 112.523 6.84337 113.528 7.34604C114.55 7.83137 115.339 8.53337 115.893 9.45204C116.465 10.3534 116.751 11.402 116.751 12.598C116.751 12.754 116.647 12.8494 116.439 12.884L113.398 13.066H113.346C113.173 13.066 113.086 12.9707 113.086 12.78C113.086 11.8614 112.8 11.1247 112.228 10.57C111.674 10.0154 110.938 9.73804 110.019 9.73804C109.084 9.73804 108.33 10.0154 107.758 10.57C107.204 11.1247 106.926 11.8614 106.926 12.78V19.046C106.926 19.9474 107.204 20.6754 107.758 21.23C108.33 21.7847 109.084 22.062 110.019 22.062C110.938 22.062 111.674 21.7847 112.228 21.23C112.8 20.6754 113.086 19.9474 113.086 19.046C113.086 18.8554 113.19 18.76 113.398 18.76L116.439 18.89C116.525 18.89 116.595 18.916 116.647 18.968C116.716 19.02 116.751 19.0807 116.751 19.15C116.751 20.346 116.465 21.4034 115.893 22.322C115.339 23.2407 114.55 23.9514 113.528 24.454C112.523 24.9567 111.353 25.208 110.019 25.208Z" fill="#484848"/>
<path d="M130.597 25C130.424 25 130.311 24.9134 130.259 24.74L129.48 22.192C129.445 22.1227 129.402 22.088 129.35 22.088H122.956C122.904 22.088 122.861 22.1227 122.826 22.192L122.073 24.74C122.021 24.9134 121.908 25 121.735 25H118.434C118.33 25 118.252 24.974 118.2 24.922C118.148 24.8527 118.14 24.7574 118.174 24.636L123.788 7.06004C123.84 6.88671 123.953 6.80004 124.126 6.80004H128.206C128.38 6.80004 128.492 6.88671 128.544 7.06004L134.158 24.636C134.175 24.6707 134.184 24.714 134.184 24.766C134.184 24.922 134.089 25 133.898 25H130.597ZM123.762 19.098C123.745 19.202 123.779 19.254 123.866 19.254H128.44C128.544 19.254 128.579 19.202 128.544 19.098L126.205 11.376C126.188 11.3067 126.162 11.2807 126.127 11.298C126.092 11.298 126.066 11.324 126.049 11.376L123.762 19.098Z" fill="#484848"/>
<path d="M136.78 25C136.694 25 136.616 24.974 136.546 24.922C136.494 24.8527 136.468 24.7747 136.468 24.688V7.11204C136.468 7.02537 136.494 6.95604 136.546 6.90404C136.616 6.83471 136.694 6.80004 136.78 6.80004H143.278C144.577 6.80004 145.712 7.03404 146.682 7.50204C147.67 7.95271 148.432 8.59404 148.97 9.42604C149.507 10.258 149.775 11.22 149.775 12.312V19.488C149.775 20.58 149.507 21.542 148.97 22.374C148.432 23.206 147.67 23.856 146.682 24.324C145.712 24.7747 144.577 25 143.278 25H136.78ZM140.133 21.724C140.133 21.8107 140.176 21.854 140.263 21.854H143.408C144.205 21.854 144.846 21.5854 145.331 21.048C145.833 20.5107 146.093 19.7914 146.111 18.89V12.91C146.111 12.0087 145.859 11.2894 145.357 10.752C144.872 10.2147 144.213 9.94604 143.382 9.94604H140.263C140.176 9.94604 140.133 9.98937 140.133 10.076V21.724Z" fill="#484848"/>
<path d="M165.165 9.63404C165.165 9.72071 165.131 9.79871 165.061 9.86804C165.01 9.92004 164.94 9.94604 164.854 9.94604H156.329C156.242 9.94604 156.199 9.98937 156.199 10.076V14.106C156.199 14.1927 156.242 14.236 156.329 14.236H161.917C162.003 14.236 162.073 14.2707 162.125 14.34C162.194 14.392 162.229 14.4614 162.229 14.548V17.07C162.229 17.1567 162.194 17.2347 162.125 17.304C162.073 17.356 162.003 17.382 161.917 17.382H156.329C156.242 17.382 156.199 17.4254 156.199 17.512V21.724C156.199 21.8107 156.242 21.854 156.329 21.854H164.854C164.94 21.854 165.01 21.8887 165.061 21.958C165.131 22.01 165.165 22.0794 165.165 22.166V24.688C165.165 24.7747 165.131 24.8527 165.061 24.922C165.01 24.974 164.94 25 164.854 25H152.846C152.76 25 152.682 24.974 152.612 24.922C152.56 24.8527 152.534 24.7747 152.534 24.688V7.11204C152.534 7.02537 152.56 6.95604 152.612 6.90404C152.682 6.83471 152.76 6.80004 152.846 6.80004H164.854C164.94 6.80004 165.01 6.83471 165.061 6.90404C165.131 6.95604 165.165 7.02537 165.165 7.11204V9.63404Z" fill="#484848"/>
<path d="M179.407 7.00804C179.494 6.86937 179.615 6.80004 179.771 6.80004H182.812C182.899 6.80004 182.968 6.83471 183.02 6.90404C183.089 6.95604 183.124 7.02537 183.124 7.11204V24.688C183.124 24.7747 183.089 24.8527 183.02 24.922C182.968 24.974 182.899 25 182.812 25H179.771C179.685 25 179.607 24.974 179.537 24.922C179.485 24.8527 179.459 24.7747 179.459 24.688V13.222C179.459 13.1527 179.442 13.118 179.407 13.118C179.373 13.118 179.338 13.144 179.304 13.196L176.549 17.512C176.462 17.6507 176.341 17.72 176.185 17.72H174.651C174.495 17.72 174.374 17.6507 174.287 17.512L171.533 13.196C171.498 13.144 171.463 13.1267 171.429 13.144C171.394 13.144 171.377 13.1787 171.377 13.248V24.688C171.377 24.7747 171.342 24.8527 171.273 24.922C171.221 24.974 171.151 25 171.065 25H168.024C167.937 25 167.859 24.974 167.79 24.922C167.738 24.8527 167.712 24.7747 167.712 24.688V7.11204C167.712 7.02537 167.738 6.95604 167.79 6.90404C167.859 6.83471 167.937 6.80004 168.024 6.80004H171.065C171.221 6.80004 171.342 6.86937 171.429 7.00804L175.327 13.066C175.379 13.17 175.431 13.17 175.483 13.066L179.407 7.00804Z" fill="#484848"/>
<path d="M191.203 24.974C191.116 24.974 191.038 24.948 190.969 24.896C190.917 24.8267 190.891 24.7487 190.891 24.662V18.084C190.891 18.0147 190.882 17.9627 190.865 17.928L185.511 7.16404C185.476 7.09471 185.459 7.04271 185.459 7.00804C185.459 6.86937 185.554 6.80004 185.745 6.80004H189.02C189.193 6.80004 189.314 6.87804 189.384 7.03404L192.632 13.95C192.684 14.054 192.736 14.054 192.788 13.95L196.037 7.03404C196.106 6.87804 196.227 6.80004 196.401 6.80004H199.727C199.849 6.80004 199.927 6.83471 199.961 6.90404C200.013 6.95604 200.013 7.04271 199.961 7.16404L194.555 17.928C194.538 17.9627 194.529 18.0147 194.529 18.084V24.662C194.529 24.7487 194.495 24.8267 194.426 24.896C194.374 24.948 194.304 24.974 194.218 24.974H191.203Z" fill="#484848"/>
<path d="M45.173 25.233C43.3004 25.233 41.8194 24.8158 40.7299 23.9813C39.6404 23.1298 39.0957 21.9973 39.0957 20.5839V19.7409C39.0957 19.5706 39.1808 19.4854 39.3511 19.4854H40.1426C40.3129 19.4854 40.398 19.5706 40.398 19.7409V20.5072C40.398 21.5631 40.8321 22.4146 41.7002 23.0617C42.5684 23.7088 43.76 24.0324 45.2751 24.0324C46.688 24.0324 47.769 23.7429 48.518 23.1639C49.267 22.5678 49.6415 21.7504 49.6415 20.7116C49.6415 20.0815 49.4713 19.5365 49.1308 19.0767C48.8074 18.5999 48.2967 18.1571 47.5988 17.7484C46.9178 17.3397 45.9475 16.8714 44.6878 16.3434C43.36 15.7815 42.3556 15.3131 41.6747 14.9385C41.0108 14.5638 40.4746 14.0955 40.066 13.5335C39.6575 12.9545 39.4532 12.2137 39.4532 11.3111C39.4532 9.91469 39.9298 8.84181 40.8831 8.0925C41.8535 7.32616 43.1898 6.94299 44.8921 6.94299C46.7476 6.94299 48.2031 7.36874 49.2585 8.22023C50.314 9.07172 50.8417 10.2127 50.8417 11.6432V12.2307C50.8417 12.401 50.7566 12.4862 50.5863 12.4862H49.7437C49.5734 12.4862 49.4883 12.401 49.4883 12.2307V11.7199C49.4883 10.647 49.0798 9.78697 48.2627 9.13984C47.4456 8.47567 46.2965 8.14359 44.8155 8.14359C43.5217 8.14359 42.5259 8.41607 41.8279 8.96102C41.13 9.48895 40.781 10.2553 40.781 11.26C40.781 11.9412 40.9427 12.4947 41.2662 12.9205C41.5896 13.3462 42.0492 13.7208 42.645 14.0444C43.2579 14.351 44.1941 14.7597 45.4538 15.2706C46.7136 15.7815 47.7264 16.2753 48.4925 16.7522C49.2755 17.212 49.8884 17.7569 50.331 18.387C50.7736 19.0171 50.9949 19.7749 50.9949 20.6605C50.9949 22.0399 50.4842 23.1468 49.4628 23.9813C48.4414 24.8158 47.0115 25.233 45.173 25.233Z" fill="#484848"/>
<path d="M59.5243 24.0324C60.3244 24.0324 61.0053 23.8536 61.567 23.496C62.1458 23.1213 62.5969 22.6104 62.9204 21.9633C63.0055 21.81 63.1162 21.7674 63.2523 21.8355L63.9162 22.1676C64.0694 22.2528 64.112 22.3635 64.0439 22.4997C63.6694 23.3342 63.0736 23.9983 62.2565 24.4922C61.4564 24.9861 60.5116 25.233 59.4221 25.233C58.2305 25.233 57.2176 24.9435 56.3835 24.3645C55.5494 23.7855 54.9791 22.9936 54.6727 21.9888C54.5365 21.5631 54.4429 21.0862 54.3918 20.5583C54.3407 20.0304 54.3152 19.3662 54.3152 18.5658C54.3152 17.7314 54.3237 17.1013 54.3407 16.6755C54.3748 16.2498 54.4344 15.8581 54.5195 15.5005C54.7918 14.4276 55.3451 13.5676 56.1792 12.9205C57.0304 12.2733 58.0688 11.9498 59.2945 11.9498C60.6904 11.9498 61.8054 12.3159 62.6395 13.0482C63.4736 13.7634 63.9928 14.7597 64.1971 16.0369C64.2482 16.3605 64.2822 16.7436 64.2993 17.1864C64.3163 17.6122 64.3248 18.1486 64.3248 18.7957C64.3248 18.966 64.2397 19.0512 64.0694 19.0512H55.7451C55.677 19.0512 55.643 19.0852 55.643 19.1534C55.643 20.2433 55.6856 20.967 55.7707 21.3247C55.9579 22.1591 56.375 22.8233 57.0219 23.3171C57.6858 23.794 58.5199 24.0324 59.5243 24.0324ZM55.8217 15.807C55.7366 16.1306 55.677 16.7947 55.643 17.7995C55.643 17.8676 55.677 17.9017 55.7451 17.9017H62.8693C62.9374 17.9017 62.9715 17.8676 62.9715 17.7995C62.9715 16.948 62.9289 16.3094 62.8438 15.8836C62.6565 15.0662 62.248 14.4106 61.6181 13.9167C60.9883 13.4058 60.2137 13.1504 59.2945 13.1504C58.3752 13.1504 57.6092 13.3973 56.9963 13.8912C56.3835 14.368 55.992 15.0066 55.8217 15.807Z" fill="#484848"/>
<path d="M73.32 11.9753C74.6308 11.9753 75.6862 12.3755 76.4863 13.1759C77.3034 13.9763 77.712 15.0321 77.712 16.3434V24.7732C77.712 24.9435 77.6268 25.0286 77.4566 25.0286H76.614C76.4437 25.0286 76.3586 24.9435 76.3586 24.7732V16.5989C76.3586 15.5941 76.0522 14.7767 75.4394 14.1466C74.8265 13.4995 74.0265 13.1759 73.0391 13.1759C72.0177 13.1759 71.1921 13.4909 70.5622 14.1211C69.9324 14.7341 69.6175 15.543 69.6175 16.5478V24.7732C69.6175 24.9435 69.5323 25.0286 69.3621 25.0286H68.5195C68.3492 25.0286 68.2641 24.9435 68.2641 24.7732V12.4096C68.2641 12.2393 68.3492 12.1541 68.5195 12.1541H69.3621C69.5323 12.1541 69.6175 12.2393 69.6175 12.4096V13.6612C69.6175 13.7123 69.626 13.7464 69.643 13.7634C69.677 13.7634 69.7026 13.7464 69.7196 13.7123C70.0941 13.1504 70.5878 12.7246 71.2006 12.4351C71.8134 12.1286 72.5199 11.9753 73.32 11.9753Z" fill="#484848"/>
<defs>
<linearGradient id="paint0_linear_7049_98338" x1="19.7047" y1="16.0003" x2="-0.00320688" y2="16.0003" gradientUnits="userSpaceOnUse">
<stop stop-color="#F9575E"/>
<stop offset="0.27" stop-color="#F8555B"/>
<stop offset="0.49" stop-color="#F44F51"/>
<stop offset="0.68" stop-color="#EE4540"/>
<stop offset="0.87" stop-color="#E63728"/>
<stop offset="1" stop-color="#DE2A13"/>
</linearGradient>
<linearGradient id="paint1_linear_7049_98338" x1="-59106.7" y1="49501.9" x2="-59635.4" y2="49372.2" gradientUnits="userSpaceOnUse">
<stop stop-color="#F9575E"/>
<stop offset="0.27" stop-color="#F8555B"/>
<stop offset="0.49" stop-color="#F44F51"/>
<stop offset="0.68" stop-color="#EE4540"/>
<stop offset="0.87" stop-color="#E63728"/>
<stop offset="1" stop-color="#DE2A13"/>
</linearGradient>
</defs>
</svg>
