<svg width="24" height="24" viewBox="0 0 24 24" fill="none" xmlns="http://www.w3.org/2000/svg">
<path d="M18.9419 6.25623C17.6472 5.66937 16.2629 5.24284 14.8158 5C14.638 5.31133 14.4303 5.73007 14.2872 6.0632C12.7487 5.83904 11.2244 5.83904 9.71429 6.0632C9.57116 5.73007 9.35876 5.31133 9.17947 5C7.73067 5.24284 6.34479 5.67092 5.05016 6.25934C2.43887 10.0825 1.73099 13.8107 2.08493 17.486C3.81688 18.7391 5.49534 19.5003 7.14548 19.9984C7.55291 19.4552 7.91628 18.8777 8.22933 18.269C7.63314 18.0495 7.06211 17.7787 6.52255 17.4642C6.6657 17.3615 6.8057 17.2541 6.94099 17.1436C10.2319 18.6348 13.8074 18.6348 17.059 17.1436C17.1958 17.2541 17.3358 17.3615 17.4774 17.4642C16.9362 17.7802 16.3637 18.0511 15.7674 18.2706C16.0805 18.8777 16.4423 19.4567 16.8513 20C18.503 19.5019 20.183 18.7407 21.915 17.486C22.3303 13.2254 21.2055 9.53145 18.9419 6.25623ZM8.67765 15.2257C7.68977 15.2257 6.87963 14.3322 6.87963 13.2441C6.87963 12.156 7.67246 11.2609 8.67765 11.2609C9.68285 11.2609 10.4929 12.1544 10.4756 13.2441C10.4773 14.3322 9.68285 15.2257 8.67765 15.2257ZM15.3223 15.2257C14.3344 15.2257 13.5242 14.3322 13.5242 13.2441C13.5242 12.156 14.3171 11.2609 15.3223 11.2609C16.3274 11.2609 17.1376 12.1544 17.1203 13.2441C17.1203 14.3322 16.3274 15.2257 15.3223 15.2257Z" fill="#7A7B85"/>
</svg>
