<svg width="233" height="32" viewBox="0 0 233 32" fill="none" xmlns="http://www.w3.org/2000/svg">
<path d="M13.0292 31.9906L4.3393 23.2985C1.56089 20.5195 0 16.7502 0 12.8199C0 8.88978 1.56089 5.12053 4.3393 2.34144L6.67495 0.00524902L15.3698 8.7022C18.146 11.4817 19.7051 15.2502 19.7042 19.1794C19.7033 23.1083 18.1425 26.8761 15.3649 29.6543L13.0292 31.9906Z" fill="url(#paint0_linear_6636_100363)"/>
<path d="M10.6948 8.70185L19.3946 0L21.7303 2.3362C23.1074 3.71244 24.1998 5.34667 24.9452 7.14549C25.6907 8.94432 26.0744 10.8724 26.0744 12.8197C26.0744 14.7669 25.6907 16.695 24.9452 18.4939C24.1998 20.2926 23.1074 21.9268 21.7303 23.3031L13.0353 32L10.6948 29.659C7.91637 26.8798 6.35547 23.1106 6.35547 19.1804C6.35547 15.2502 7.91637 11.4809 10.6948 8.70185Z" fill="url(#paint1_linear_6636_100363)"/>
<path d="M45.1994 25.2318C43.3235 25.2318 41.8399 24.8146 40.7485 23.9802C39.657 23.1287 39.1113 21.9963 39.1113 20.583V19.74C39.1113 19.5698 39.1966 19.4846 39.3671 19.4846H40.1601C40.3307 19.4846 40.4159 19.5698 40.4159 19.74V20.5063C40.4159 21.5621 40.8508 22.4135 41.7205 23.0606C42.5902 23.7077 43.784 24.0313 45.3017 24.0313C46.7172 24.0313 47.8001 23.7418 48.5504 23.1628C49.3008 22.5668 49.676 21.7494 49.676 20.7107C49.676 20.0806 49.5054 19.5357 49.1643 19.0759C48.8403 18.5991 48.3287 18.1564 47.6295 17.7477C46.9474 17.339 45.9754 16.8707 44.7134 16.3428C43.3832 15.7809 42.3771 15.3126 41.6949 14.938C41.0298 14.5633 40.4927 14.095 40.0834 13.5331C39.6741 12.9541 39.4695 12.2134 39.4695 11.3108C39.4695 9.9145 39.9469 8.84169 40.9019 8.09243C41.874 7.32614 43.2127 6.94299 44.918 6.94299C46.7769 6.94299 48.2349 7.36871 49.2922 8.22014C50.3496 9.07158 50.8782 10.2125 50.8782 11.6429V12.2304C50.8782 12.4007 50.793 12.4858 50.6224 12.4858H49.7783C49.6077 12.4858 49.5225 12.4007 49.5225 12.2304V11.7195C49.5225 10.6467 49.1132 9.78678 48.2946 9.13969C47.4761 8.47557 46.3249 8.14352 44.8413 8.14352C43.5452 8.14352 42.5476 8.41597 41.8484 8.96089C41.1492 9.48878 40.7996 10.2551 40.7996 11.2598C40.7996 11.9409 40.9616 12.4943 41.2856 12.9201C41.6097 13.3458 42.0701 13.7204 42.667 14.044C43.2809 14.3505 44.2188 14.7592 45.4808 15.27C46.7428 15.7809 47.7574 16.2747 48.5248 16.7515C49.3093 17.2113 49.9232 17.7562 50.3666 18.3863C50.81 19.0163 51.0317 19.7741 51.0317 20.6596C51.0317 22.0389 50.5201 23.1458 49.4969 23.9802C48.4737 24.8146 47.0412 25.2318 45.1994 25.2318ZM59.5764 24.0313C60.3779 24.0313 61.06 23.8525 61.6228 23.4949C62.2026 23.1202 62.6545 22.6094 62.9785 21.9623C63.0638 21.809 63.1747 21.7665 63.3111 21.8346L63.9762 22.1666C64.1297 22.2518 64.1723 22.3625 64.1041 22.4987C63.7289 23.3331 63.132 23.9972 62.3135 24.491C61.5119 24.9849 60.5655 25.2318 59.4741 25.2318C58.2803 25.2318 57.2656 24.9423 56.43 24.3633C55.5944 23.7844 55.0231 22.9925 54.7161 21.9878C54.5797 21.5621 54.4859 21.0853 54.4348 20.5574C54.3836 20.0295 54.358 19.3654 54.358 18.5651C54.358 17.7307 54.3665 17.1006 54.3836 16.6749C54.4177 16.2492 54.4774 15.8575 54.5627 15.4999C54.8355 14.4271 55.3898 13.5671 56.2254 12.9201C57.078 12.273 58.1183 11.9494 59.3462 11.9494C60.7445 11.9494 61.8615 12.3155 62.6972 13.0478C63.5328 13.763 64.0529 14.7592 64.2576 16.0363C64.3087 16.3599 64.3428 16.743 64.3599 17.1857C64.3769 17.6115 64.3855 18.1479 64.3855 18.795C64.3855 18.9652 64.3002 19.0504 64.1297 19.0504H55.7905C55.7223 19.0504 55.6882 19.0844 55.6882 19.1526C55.6882 20.2424 55.7308 20.9661 55.8161 21.3237C56.0037 22.1581 56.4215 22.8222 57.0695 23.3161C57.7346 23.7929 58.5702 24.0313 59.5764 24.0313ZM55.8672 15.8064C55.782 16.13 55.7223 16.7941 55.6882 17.7988C55.6882 17.8669 55.7223 17.9009 55.7905 17.9009H62.9274C62.9956 17.9009 63.0297 17.8669 63.0297 17.7988C63.0297 16.9473 62.9871 16.3088 62.9018 15.883C62.7142 15.0657 62.3049 14.4101 61.674 13.9162C61.043 13.4054 60.267 13.1499 59.3462 13.1499C58.4253 13.1499 57.6579 13.3969 57.0439 13.8907C56.43 14.3675 56.0378 15.0061 55.8672 15.8064ZM73.3966 11.975C74.7097 11.975 75.767 12.3751 76.5686 13.1755C77.3871 13.9758 77.7964 15.0316 77.7964 16.3428V24.772C77.7964 24.9423 77.7111 25.0274 77.5406 25.0274H76.6965C76.5259 25.0274 76.4407 24.9423 76.4407 24.772V16.5983C76.4407 15.5936 76.1337 14.7762 75.5198 14.1461C74.9058 13.499 74.1043 13.1755 73.1152 13.1755C72.092 13.1755 71.2649 13.4905 70.634 14.1206C70.003 14.7336 69.6875 15.5425 69.6875 16.5472V24.772C69.6875 24.9423 69.6022 25.0274 69.4317 25.0274H68.5875C68.417 25.0274 68.3317 24.9423 68.3317 24.772V12.4092C68.3317 12.2389 68.417 12.1538 68.5875 12.1538H69.4317C69.6022 12.1538 69.6875 12.2389 69.6875 12.4092V13.6608C69.6875 13.7119 69.696 13.746 69.7131 13.763C69.7472 13.763 69.7727 13.746 69.7898 13.7119C70.165 13.1499 70.6595 12.7242 71.2735 12.4347C71.8874 12.1282 72.5951 11.975 73.3966 11.975ZM87.443 13.0478C87.443 13.2181 87.3577 13.3032 87.1872 13.3032H84.1943C84.1261 13.3032 84.092 13.3373 84.092 13.4054V21.477C84.092 22.3454 84.2881 22.9585 84.6803 23.3161C85.0725 23.6566 85.7035 23.8269 86.5733 23.8269H87.1616C87.3321 23.8269 87.4174 23.9121 87.4174 24.0824V24.772C87.4174 24.9423 87.3321 25.0274 87.1616 25.0274L86.3942 25.053C85.2005 25.053 84.2966 24.8231 83.6827 24.3633C83.0858 23.9036 82.7789 23.0606 82.7618 21.8346V13.4054C82.7618 13.3373 82.7277 13.3032 82.6595 13.3032H81.1247C80.9541 13.3032 80.8689 13.2181 80.8689 13.0478V12.4092C80.8689 12.2389 80.9541 12.1538 81.1247 12.1538H82.6595C82.7277 12.1538 82.7618 12.1197 82.7618 12.0516V9.13969C82.7618 8.96941 82.8471 8.88426 83.0176 8.88426H83.8362C84.0067 8.88426 84.092 8.96941 84.092 9.13969V12.0516C84.092 12.1197 84.1261 12.1538 84.1943 12.1538H87.1872C87.3577 12.1538 87.443 12.2389 87.443 12.4092V13.0478ZM96.1243 12.0516C96.7041 12.0516 97.1986 12.1538 97.6079 12.3581C97.7443 12.4092 97.7955 12.5199 97.7614 12.6902L97.5312 13.5075C97.48 13.6778 97.3692 13.7289 97.1986 13.6608C96.8576 13.5246 96.4312 13.465 95.9196 13.482C94.9646 13.499 94.1716 13.8651 93.5407 14.5804C92.9267 15.2785 92.6198 16.1385 92.6198 17.1602V24.772C92.6198 24.9423 92.5345 25.0274 92.364 25.0274H91.5198C91.3493 25.0274 91.264 24.9423 91.264 24.772V12.4092C91.264 12.2389 91.3493 12.1538 91.5198 12.1538H92.364C92.5345 12.1538 92.6198 12.2389 92.6198 12.4092V14.1461C92.6198 14.1972 92.6283 14.2313 92.6454 14.2483C92.6795 14.2483 92.705 14.2228 92.7221 14.1717C93.0802 13.5075 93.5407 12.9882 94.1034 12.6135C94.6832 12.2389 95.3569 12.0516 96.1243 12.0516ZM105.191 24.0313C105.993 24.0313 106.675 23.8525 107.237 23.4949C107.817 23.1202 108.269 22.6094 108.593 21.9623C108.678 21.809 108.789 21.7665 108.926 21.8346L109.591 22.1666C109.744 22.2518 109.787 22.3625 109.719 22.4987C109.344 23.3331 108.747 23.9972 107.928 24.491C107.127 24.9849 106.18 25.2318 105.089 25.2318C103.895 25.2318 102.88 24.9423 102.045 24.3633C101.209 23.7844 100.638 22.9925 100.331 21.9878C100.194 21.5621 100.101 21.0853 100.049 20.5574C99.9982 20.0295 99.9727 19.3654 99.9727 18.5651C99.9727 17.7307 99.9812 17.1006 99.9982 16.6749C100.032 16.2492 100.092 15.8575 100.177 15.4999C100.45 14.4271 101.004 13.5671 101.84 12.9201C102.693 12.273 103.733 11.9494 104.961 11.9494C106.359 11.9494 107.476 12.3155 108.312 13.0478C109.147 13.763 109.668 14.7592 109.872 16.0363C109.923 16.3599 109.957 16.743 109.975 17.1857C109.992 17.6115 110 18.1479 110 18.795C110 18.9652 109.915 19.0504 109.744 19.0504H101.405C101.337 19.0504 101.303 19.0844 101.303 19.1526C101.303 20.2424 101.345 20.9661 101.431 21.3237C101.618 22.1581 102.036 22.8222 102.684 23.3161C103.349 23.7929 104.185 24.0313 105.191 24.0313ZM101.482 15.8064C101.397 16.13 101.337 16.7941 101.303 17.7988C101.303 17.8669 101.337 17.9009 101.405 17.9009H108.542C108.61 17.9009 108.644 17.8669 108.644 17.7988C108.644 16.9473 108.602 16.3088 108.516 15.883C108.329 15.0657 107.92 14.4101 107.289 13.9162C106.658 13.4054 105.882 13.1499 104.961 13.1499C104.04 13.1499 103.273 13.3969 102.659 13.8907C102.045 14.3675 101.652 15.0061 101.482 15.8064Z" fill="#484848"/>
<path d="M131.156 25C130.982 25 130.87 24.9134 130.818 24.74L130.038 22.192C130.003 22.1227 129.96 22.088 129.908 22.088H123.512C123.46 22.088 123.416 22.1227 123.382 22.192L122.628 24.74C122.576 24.9134 122.463 25 122.29 25H118.988C118.884 25 118.806 24.974 118.754 24.922C118.702 24.8527 118.693 24.7574 118.728 24.636L124.344 7.06004C124.396 6.88671 124.508 6.80004 124.682 6.80004H128.764C128.937 6.80004 129.05 6.88671 129.102 7.06004L134.718 24.636C134.735 24.6707 134.744 24.714 134.744 24.766C134.744 24.922 134.648 25 134.458 25H131.156ZM124.318 19.098C124.3 19.202 124.335 19.254 124.422 19.254H128.998C129.102 19.254 129.136 19.202 129.102 19.098L126.762 11.376C126.744 11.3067 126.718 11.2807 126.684 11.298C126.649 11.298 126.623 11.324 126.606 11.376L124.318 19.098Z" fill="#484848"/>
<path d="M142.867 25.208C141.515 25.208 140.327 24.948 139.305 24.428C138.282 23.8907 137.493 23.1454 136.939 22.192C136.384 21.2387 136.107 20.138 136.107 18.89V12.884C136.107 11.636 136.384 10.5354 136.939 9.58204C137.493 8.62871 138.282 7.89204 139.305 7.37204C140.327 6.85204 141.515 6.59204 142.867 6.59204C144.201 6.59204 145.371 6.84337 146.377 7.34604C147.399 7.83137 148.188 8.53337 148.743 9.45204C149.315 10.3534 149.601 11.402 149.601 12.598C149.601 12.754 149.497 12.8494 149.289 12.884L146.247 13.066H146.195C146.021 13.066 145.935 12.9707 145.935 12.78C145.935 11.8614 145.649 11.1247 145.077 10.57C144.522 10.0154 143.785 9.73804 142.867 9.73804C141.931 9.73804 141.177 10.0154 140.605 10.57C140.05 11.1247 139.773 11.8614 139.773 12.78V19.046C139.773 19.9474 140.05 20.6754 140.605 21.23C141.177 21.7847 141.931 22.062 142.867 22.062C143.785 22.062 144.522 21.7847 145.077 21.23C145.649 20.6754 145.935 19.9474 145.935 19.046C145.935 18.8554 146.039 18.76 146.247 18.76L149.289 18.89C149.375 18.89 149.445 18.916 149.497 18.968C149.566 19.02 149.601 19.0807 149.601 19.15C149.601 20.346 149.315 21.4034 148.743 22.322C148.188 23.2407 147.399 23.9514 146.377 24.454C145.371 24.9567 144.201 25.208 142.867 25.208Z" fill="#484848"/>
<path d="M163.453 25C163.279 25 163.167 24.9134 163.115 24.74L162.335 22.192C162.3 22.1227 162.257 22.088 162.205 22.088H155.809C155.757 22.088 155.713 22.1227 155.679 22.192L154.925 24.74C154.873 24.9134 154.76 25 154.587 25H151.285C151.181 25 151.103 24.974 151.051 24.922C150.999 24.8527 150.99 24.7574 151.025 24.636L156.641 7.06004C156.693 6.88671 156.805 6.80004 156.979 6.80004H161.061C161.234 6.80004 161.347 6.88671 161.399 7.06004L167.015 24.636C167.032 24.6707 167.041 24.714 167.041 24.766C167.041 24.922 166.945 25 166.755 25H163.453ZM156.615 19.098C156.597 19.202 156.632 19.254 156.719 19.254H161.295C161.399 19.254 161.433 19.202 161.399 19.098L159.059 11.376C159.041 11.3067 159.015 11.2807 158.981 11.298C158.946 11.298 158.92 11.324 158.903 11.376L156.615 19.098Z" fill="#484848"/>
<path d="M169.638 25C169.551 25 169.473 24.974 169.404 24.922C169.352 24.8527 169.326 24.7747 169.326 24.688V7.11204C169.326 7.02537 169.352 6.95604 169.404 6.90404C169.473 6.83471 169.551 6.80004 169.638 6.80004H176.138C177.438 6.80004 178.573 7.03404 179.544 7.50204C180.532 7.95271 181.295 8.59404 181.832 9.42604C182.369 10.258 182.638 11.22 182.638 12.312V19.488C182.638 20.58 182.369 21.542 181.832 22.374C181.295 23.206 180.532 23.856 179.544 24.324C178.573 24.7747 177.438 25 176.138 25H169.638ZM172.992 21.724C172.992 21.8107 173.035 21.854 173.122 21.854H176.268C177.065 21.854 177.707 21.5854 178.192 21.048C178.695 20.5107 178.955 19.7914 178.972 18.89V12.91C178.972 12.0087 178.721 11.2894 178.218 10.752C177.733 10.2147 177.074 9.94604 176.242 9.94604H173.122C173.035 9.94604 172.992 9.98937 172.992 10.076V21.724Z" fill="#484848"/>
<path d="M198.034 9.63404C198.034 9.72071 198 9.79871 197.93 9.86804C197.878 9.92004 197.809 9.94604 197.722 9.94604H189.194C189.108 9.94604 189.064 9.98937 189.064 10.076V14.106C189.064 14.1927 189.108 14.236 189.194 14.236H194.784C194.871 14.236 194.94 14.2707 194.992 14.34C195.062 14.392 195.096 14.4614 195.096 14.548V17.07C195.096 17.1567 195.062 17.2347 194.992 17.304C194.94 17.356 194.871 17.382 194.784 17.382H189.194C189.108 17.382 189.064 17.4254 189.064 17.512V21.724C189.064 21.8107 189.108 21.854 189.194 21.854H197.722C197.809 21.854 197.878 21.8887 197.93 21.958C198 22.01 198.034 22.0794 198.034 22.166V24.688C198.034 24.7747 198 24.8527 197.93 24.922C197.878 24.974 197.809 25 197.722 25H185.71C185.624 25 185.546 24.974 185.476 24.922C185.424 24.8527 185.398 24.7747 185.398 24.688V7.11204C185.398 7.02537 185.424 6.95604 185.476 6.90404C185.546 6.83471 185.624 6.80004 185.71 6.80004H197.722C197.809 6.80004 197.878 6.83471 197.93 6.90404C198 6.95604 198.034 7.02537 198.034 7.11204V9.63404Z" fill="#484848"/>
<path d="M212.282 7.00804C212.369 6.86937 212.49 6.80004 212.646 6.80004H215.688C215.775 6.80004 215.844 6.83471 215.896 6.90404C215.965 6.95604 216 7.02537 216 7.11204V24.688C216 24.7747 215.965 24.8527 215.896 24.922C215.844 24.974 215.775 25 215.688 25H212.646C212.559 25 212.481 24.974 212.412 24.922C212.36 24.8527 212.334 24.7747 212.334 24.688V13.222C212.334 13.1527 212.317 13.118 212.282 13.118C212.247 13.118 212.213 13.144 212.178 13.196L209.422 17.512C209.335 17.6507 209.214 17.72 209.058 17.72H207.524C207.368 17.72 207.247 17.6507 207.16 17.512L204.404 13.196C204.369 13.144 204.335 13.1267 204.3 13.144C204.265 13.144 204.248 13.1787 204.248 13.248V24.688C204.248 24.7747 204.213 24.8527 204.144 24.922C204.092 24.974 204.023 25 203.936 25H200.894C200.807 25 200.729 24.974 200.66 24.922C200.608 24.8527 200.582 24.7747 200.582 24.688V7.11204C200.582 7.02537 200.608 6.95604 200.66 6.90404C200.729 6.83471 200.807 6.80004 200.894 6.80004H203.936C204.092 6.80004 204.213 6.86937 204.3 7.00804L208.2 13.066C208.252 13.17 208.304 13.17 208.356 13.066L212.282 7.00804Z" fill="#484848"/>
<path d="M224.082 24.974C223.995 24.974 223.917 24.948 223.848 24.896C223.796 24.8267 223.77 24.7487 223.77 24.662V18.084C223.77 18.0147 223.761 17.9627 223.744 17.928L218.388 7.16404C218.353 7.09471 218.336 7.04271 218.336 7.00804C218.336 6.86937 218.431 6.80004 218.622 6.80004H221.898C222.071 6.80004 222.193 6.87804 222.262 7.03404L225.512 13.95C225.564 14.054 225.616 14.054 225.668 13.95L228.918 7.03404C228.987 6.87804 229.109 6.80004 229.282 6.80004H232.61C232.731 6.80004 232.809 6.83471 232.844 6.90404C232.896 6.95604 232.896 7.04271 232.844 7.16404L227.436 17.928C227.419 17.9627 227.41 18.0147 227.41 18.084V24.662C227.41 24.7487 227.375 24.8267 227.306 24.896C227.254 24.948 227.185 24.974 227.098 24.974H224.082Z" fill="#484848"/>
<defs>
<linearGradient id="paint0_linear_6636_100363" x1="19.7124" y1="16.0003" x2="-0.00320813" y2="16.0003" gradientUnits="userSpaceOnUse">
<stop stop-color="#F9575E"/>
<stop offset="0.27" stop-color="#F8555B"/>
<stop offset="0.49" stop-color="#F44F51"/>
<stop offset="0.68" stop-color="#EE4540"/>
<stop offset="0.87" stop-color="#E63728"/>
<stop offset="1" stop-color="#DE2A13"/>
</linearGradient>
<linearGradient id="paint1_linear_6636_100363" x1="-59129.8" y1="49501.9" x2="-59658.7" y2="49372.1" gradientUnits="userSpaceOnUse">
<stop stop-color="#F9575E"/>
<stop offset="0.27" stop-color="#F8555B"/>
<stop offset="0.49" stop-color="#F44F51"/>
<stop offset="0.68" stop-color="#EE4540"/>
<stop offset="0.87" stop-color="#E63728"/>
<stop offset="1" stop-color="#DE2A13"/>
</linearGradient>
</defs>
</svg>
