<svg width="200" height="33" viewBox="0 0 200 33" fill="none" xmlns="http://www.w3.org/2000/svg">
<path d="M13.0242 32.0469L4.33761 23.3548C1.56028 20.5758 0 16.8065 0 12.8762C0 8.94605 1.56028 5.17681 4.33761 2.39772L6.67234 0.0615234L15.3638 8.75848C18.1389 11.538 19.6974 15.3065 19.6965 19.2357C19.6956 23.1646 18.1354 26.9324 15.3589 29.7105L13.0242 32.0469Z" fill="url(#paint0_linear_7049_98393)"/>
<path d="M10.6911 8.75812L19.3875 0.0562744L21.7223 2.39247C23.0989 3.76872 24.1909 5.40294 24.936 7.20177C25.6812 9.00059 26.0647 10.9287 26.0647 12.8759C26.0647 14.8232 25.6812 16.7513 24.936 18.5501C24.1909 20.3489 23.0989 21.983 21.7223 23.3594L13.0307 32.0563L10.6911 29.7153C7.91381 26.9361 6.35352 23.1669 6.35352 19.2367C6.35352 15.3064 7.91381 11.5372 10.6911 8.75812Z" fill="url(#paint1_linear_7049_98393)"/>
<path d="M98.3131 25.0563C98.1398 25.0563 98.0272 24.9696 97.9752 24.7963L97.1955 22.2483C97.1609 22.179 97.1175 22.1443 97.0656 22.1443H90.6721C90.6201 22.1443 90.5768 22.179 90.5421 22.2483L89.7884 24.7963C89.7364 24.9696 89.6238 25.0563 89.4505 25.0563H86.1498C86.0459 25.0563 85.9679 25.0303 85.9159 24.9783C85.8639 24.909 85.8553 24.8136 85.8899 24.6923L91.5037 7.11631C91.5557 6.94298 91.6683 6.85631 91.8416 6.85631H95.922C96.0953 6.85631 96.2079 6.94298 96.2599 7.11631L101.874 24.6923C101.891 24.727 101.9 24.7703 101.9 24.8223C101.9 24.9783 101.804 25.0563 101.614 25.0563H98.3131ZM91.4777 19.1543C91.4604 19.2583 91.4951 19.3103 91.5817 19.3103H96.1559C96.2599 19.3103 96.2945 19.2583 96.2599 19.1543L93.9208 11.4323C93.9035 11.363 93.8775 11.337 93.8428 11.3543C93.8082 11.3543 93.7822 11.3803 93.7649 11.4323L91.4777 19.1543Z" fill="#F1F2F2"/>
<path d="M110.019 25.2643C108.668 25.2643 107.481 25.0043 106.459 24.4843C105.436 23.947 104.648 23.2016 104.094 22.2483C103.539 21.295 103.262 20.1943 103.262 18.9463V12.9403C103.262 11.6923 103.539 10.5916 104.094 9.63831C104.648 8.68498 105.436 7.94832 106.459 7.42831C107.481 6.90832 108.668 6.64832 110.019 6.64832C111.353 6.64832 112.523 6.89965 113.528 7.40232C114.55 7.88765 115.339 8.58965 115.893 9.50831C116.465 10.4096 116.751 11.4583 116.751 12.6543C116.751 12.8103 116.647 12.9056 116.439 12.9403L113.398 13.1223H113.346C113.173 13.1223 113.086 13.027 113.086 12.8363C113.086 11.9176 112.8 11.181 112.228 10.6263C111.674 10.0716 110.938 9.79432 110.019 9.79432C109.084 9.79432 108.33 10.0716 107.758 10.6263C107.204 11.181 106.926 11.9176 106.926 12.8363V19.1023C106.926 20.0036 107.204 20.7316 107.758 21.2863C108.33 21.841 109.084 22.1183 110.019 22.1183C110.938 22.1183 111.674 21.841 112.228 21.2863C112.8 20.7316 113.086 20.0036 113.086 19.1023C113.086 18.9116 113.19 18.8163 113.398 18.8163L116.439 18.9463C116.525 18.9463 116.595 18.9723 116.647 19.0243C116.716 19.0763 116.751 19.137 116.751 19.2063C116.751 20.4023 116.465 21.4596 115.893 22.3783C115.339 23.297 114.55 24.0076 113.528 24.5103C112.523 25.013 111.353 25.2643 110.019 25.2643Z" fill="#F1F2F2"/>
<path d="M130.597 25.0563C130.424 25.0563 130.311 24.9696 130.259 24.7963L129.48 22.2483C129.445 22.179 129.402 22.1443 129.35 22.1443H122.956C122.904 22.1443 122.861 22.179 122.826 22.2483L122.073 24.7963C122.021 24.9696 121.908 25.0563 121.735 25.0563H118.434C118.33 25.0563 118.252 25.0303 118.2 24.9783C118.148 24.909 118.14 24.8136 118.174 24.6923L123.788 7.11631C123.84 6.94298 123.953 6.85631 124.126 6.85631H128.206C128.38 6.85631 128.492 6.94298 128.544 7.11631L134.158 24.6923C134.175 24.727 134.184 24.7703 134.184 24.8223C134.184 24.9783 134.089 25.0563 133.898 25.0563H130.597ZM123.762 19.1543C123.745 19.2583 123.779 19.3103 123.866 19.3103H128.44C128.544 19.3103 128.579 19.2583 128.544 19.1543L126.205 11.4323C126.188 11.363 126.162 11.337 126.127 11.3543C126.092 11.3543 126.066 11.3803 126.049 11.4323L123.762 19.1543Z" fill="#F1F2F2"/>
<path d="M136.78 25.0563C136.694 25.0563 136.616 25.0303 136.546 24.9783C136.494 24.909 136.468 24.831 136.468 24.7443V7.16831C136.468 7.08165 136.494 7.01231 136.546 6.96031C136.616 6.89098 136.694 6.85631 136.78 6.85631H143.278C144.577 6.85631 145.712 7.09031 146.682 7.55831C147.67 8.00898 148.432 8.65031 148.97 9.48231C149.507 10.3143 149.775 11.2763 149.775 12.3683V19.5443C149.775 20.6363 149.507 21.5983 148.97 22.4303C148.432 23.2623 147.67 23.9123 146.682 24.3803C145.712 24.831 144.577 25.0563 143.278 25.0563H136.78ZM140.133 21.7803C140.133 21.867 140.176 21.9103 140.263 21.9103H143.408C144.205 21.9103 144.846 21.6416 145.331 21.1043C145.833 20.567 146.093 19.8476 146.111 18.9463V12.9663C146.111 12.065 145.859 11.3456 145.357 10.8083C144.872 10.271 144.213 10.0023 143.382 10.0023H140.263C140.176 10.0023 140.133 10.0456 140.133 10.1323V21.7803Z" fill="#F1F2F2"/>
<path d="M165.165 9.69031C165.165 9.77698 165.131 9.85498 165.061 9.92431C165.01 9.97631 164.94 10.0023 164.854 10.0023H156.329C156.242 10.0023 156.199 10.0456 156.199 10.1323V14.1623C156.199 14.249 156.242 14.2923 156.329 14.2923H161.917C162.003 14.2923 162.073 14.327 162.125 14.3963C162.194 14.4483 162.229 14.5176 162.229 14.6043V17.1263C162.229 17.213 162.194 17.291 162.125 17.3603C162.073 17.4123 162.003 17.4383 161.917 17.4383H156.329C156.242 17.4383 156.199 17.4816 156.199 17.5683V21.7803C156.199 21.867 156.242 21.9103 156.329 21.9103H164.854C164.94 21.9103 165.01 21.945 165.061 22.0143C165.131 22.0663 165.165 22.1356 165.165 22.2223V24.7443C165.165 24.831 165.131 24.909 165.061 24.9783C165.01 25.0303 164.94 25.0563 164.854 25.0563H152.846C152.76 25.0563 152.682 25.0303 152.612 24.9783C152.56 24.909 152.534 24.831 152.534 24.7443V7.16831C152.534 7.08165 152.56 7.01231 152.612 6.96031C152.682 6.89098 152.76 6.85631 152.846 6.85631H164.854C164.94 6.85631 165.01 6.89098 165.061 6.96031C165.131 7.01231 165.165 7.08165 165.165 7.16831V9.69031Z" fill="#F1F2F2"/>
<path d="M179.407 7.06431C179.494 6.92565 179.615 6.85631 179.771 6.85631H182.812C182.899 6.85631 182.968 6.89098 183.02 6.96031C183.089 7.01231 183.124 7.08165 183.124 7.16831V24.7443C183.124 24.831 183.089 24.909 183.02 24.9783C182.968 25.0303 182.899 25.0563 182.812 25.0563H179.771C179.685 25.0563 179.607 25.0303 179.537 24.9783C179.485 24.909 179.459 24.831 179.459 24.7443V13.2783C179.459 13.209 179.442 13.1743 179.407 13.1743C179.373 13.1743 179.338 13.2003 179.304 13.2523L176.549 17.5683C176.462 17.707 176.341 17.7763 176.185 17.7763H174.651C174.495 17.7763 174.374 17.707 174.287 17.5683L171.533 13.2523C171.498 13.2003 171.463 13.183 171.429 13.2003C171.394 13.2003 171.377 13.235 171.377 13.3043V24.7443C171.377 24.831 171.342 24.909 171.273 24.9783C171.221 25.0303 171.151 25.0563 171.065 25.0563H168.024C167.937 25.0563 167.859 25.0303 167.79 24.9783C167.738 24.909 167.712 24.831 167.712 24.7443V7.16831C167.712 7.08165 167.738 7.01231 167.79 6.96031C167.859 6.89098 167.937 6.85631 168.024 6.85631H171.065C171.221 6.85631 171.342 6.92565 171.429 7.06431L175.327 13.1223C175.379 13.2263 175.431 13.2263 175.483 13.1223L179.407 7.06431Z" fill="#F1F2F2"/>
<path d="M191.203 25.0303C191.116 25.0303 191.038 25.0043 190.969 24.9523C190.917 24.883 190.891 24.805 190.891 24.7183V18.1403C190.891 18.071 190.882 18.019 190.865 17.9843L185.511 7.22031C185.476 7.15098 185.459 7.09898 185.459 7.06431C185.459 6.92565 185.554 6.85631 185.745 6.85631H189.02C189.193 6.85631 189.314 6.93431 189.384 7.09031L192.632 14.0063C192.684 14.1103 192.736 14.1103 192.788 14.0063L196.037 7.09031C196.106 6.93431 196.227 6.85631 196.401 6.85631H199.727C199.849 6.85631 199.927 6.89098 199.961 6.96031C200.013 7.01231 200.013 7.09898 199.961 7.22031L194.555 17.9843C194.538 18.019 194.529 18.071 194.529 18.1403V24.7183C194.529 24.805 194.495 24.883 194.426 24.9523C194.374 25.0043 194.304 25.0303 194.218 25.0303H191.203Z" fill="#F1F2F2"/>
<path d="M45.173 25.2893C43.3004 25.2893 41.8194 24.872 40.7299 24.0376C39.6404 23.1861 39.0957 22.0536 39.0957 20.6401V19.7972C39.0957 19.6269 39.1808 19.5417 39.3511 19.5417H40.1426C40.3129 19.5417 40.398 19.6269 40.398 19.7972V20.5635C40.398 21.6193 40.8321 22.4708 41.7002 23.118C42.5684 23.7651 43.76 24.0887 45.2751 24.0887C46.688 24.0887 47.769 23.7992 48.518 23.2201C49.267 22.6241 49.6415 21.8067 49.6415 20.7679C49.6415 20.1378 49.4713 19.5928 49.1308 19.133C48.8074 18.6562 48.2967 18.2134 47.5988 17.8047C46.9178 17.396 45.9475 16.9276 44.6878 16.3997C43.36 15.8377 42.3556 15.3694 41.6747 14.9948C41.0108 14.6201 40.4746 14.1518 40.066 13.5898C39.6575 13.0108 39.4532 12.27 39.4532 11.3674C39.4532 9.97097 39.9298 8.89809 40.8831 8.14878C41.8535 7.38244 43.1898 6.99927 44.8921 6.99927C46.7476 6.99927 48.2031 7.42501 49.2585 8.2765C50.314 9.12799 50.8417 10.269 50.8417 11.6995V12.287C50.8417 12.4573 50.7566 12.5425 50.5863 12.5425H49.7437C49.5734 12.5425 49.4883 12.4573 49.4883 12.287V11.7761C49.4883 10.7032 49.0798 9.84324 48.2627 9.19611C47.4456 8.53195 46.2965 8.19987 44.8155 8.19987C43.5217 8.19987 42.5259 8.47234 41.8279 9.0173C41.13 9.54522 40.781 10.3116 40.781 11.3163C40.781 11.9975 40.9427 12.551 41.2662 12.9767C41.5896 13.4025 42.0492 13.7771 42.645 14.1007C43.2579 14.4072 44.1941 14.8159 45.4538 15.3268C46.7136 15.8377 47.7264 16.3316 48.4925 16.8084C49.2755 17.2682 49.8884 17.8132 50.331 18.4433C50.7736 19.0734 50.9949 19.8312 50.9949 20.7168C50.9949 22.0962 50.4842 23.2031 49.4628 24.0376C48.4414 24.872 47.0115 25.2893 45.173 25.2893Z" fill="#F1F2F2"/>
<path d="M59.5243 24.0887C60.3244 24.0887 61.0053 23.9099 61.567 23.5522C62.1458 23.1776 62.5969 22.6667 62.9204 22.0195C63.0055 21.8663 63.1162 21.8237 63.2523 21.8918L63.9162 22.2239C64.0694 22.3091 64.112 22.4197 64.0439 22.556C63.6694 23.3904 63.0736 24.0546 62.2565 24.5485C61.4564 25.0423 60.5116 25.2893 59.4221 25.2893C58.2305 25.2893 57.2176 24.9998 56.3835 24.4207C55.5494 23.8417 54.9791 23.0499 54.6727 22.0451C54.5365 21.6193 54.4429 21.1425 54.3918 20.6146C54.3407 20.0867 54.3152 19.4225 54.3152 18.6221C54.3152 17.7876 54.3237 17.1575 54.3407 16.7318C54.3748 16.3061 54.4344 15.9144 54.5195 15.5567C54.7918 14.4839 55.3451 13.6239 56.1792 12.9767C57.0304 12.3296 58.0688 12.006 59.2945 12.006C60.6904 12.006 61.8054 12.3722 62.6395 13.1044C63.4736 13.8197 63.9928 14.8159 64.1971 16.0932C64.2482 16.4167 64.2822 16.7999 64.2993 17.2427C64.3163 17.6684 64.3248 18.2049 64.3248 18.852C64.3248 19.0223 64.2397 19.1075 64.0694 19.1075H55.7451C55.677 19.1075 55.643 19.1415 55.643 19.2096C55.643 20.2995 55.6856 21.0233 55.7707 21.3809C55.9579 22.2154 56.375 22.8796 57.0219 23.3734C57.6858 23.8502 58.5199 24.0887 59.5243 24.0887ZM55.8217 15.8633C55.7366 16.1868 55.677 16.851 55.643 17.8558C55.643 17.9239 55.677 17.9579 55.7451 17.9579H62.8693C62.9374 17.9579 62.9715 17.9239 62.9715 17.8558C62.9715 17.0043 62.9289 16.3657 62.8438 15.9399C62.6565 15.1225 62.248 14.4668 61.6181 13.973C60.9883 13.4621 60.2137 13.2066 59.2945 13.2066C58.3752 13.2066 57.6092 13.4536 56.9963 13.9474C56.3835 14.4243 55.992 15.0629 55.8217 15.8633Z" fill="#F1F2F2"/>
<path d="M73.32 12.0316C74.6308 12.0316 75.6862 12.4318 76.4863 13.2322C77.3034 14.0326 77.712 15.0884 77.712 16.3997V24.8295C77.712 24.9998 77.6268 25.0849 77.4566 25.0849H76.614C76.4437 25.0849 76.3586 24.9998 76.3586 24.8295V16.6552C76.3586 15.6504 76.0522 14.833 75.4394 14.2029C74.8265 13.5557 74.0265 13.2322 73.0391 13.2322C72.0177 13.2322 71.1921 13.5472 70.5622 14.1773C69.9324 14.7904 69.6175 15.5993 69.6175 16.6041V24.8295C69.6175 24.9998 69.5323 25.0849 69.3621 25.0849H68.5195C68.3492 25.0849 68.2641 24.9998 68.2641 24.8295V12.4658C68.2641 12.2955 68.3492 12.2104 68.5195 12.2104H69.3621C69.5323 12.2104 69.6175 12.2955 69.6175 12.4658V13.7175C69.6175 13.7686 69.626 13.8027 69.643 13.8197C69.677 13.8197 69.7026 13.8027 69.7196 13.7686C70.0941 13.2066 70.5878 12.7809 71.2006 12.4914C71.8134 12.1848 72.5199 12.0316 73.32 12.0316Z" fill="#F1F2F2"/>
<defs>
<linearGradient id="paint0_linear_7049_98393" x1="19.7047" y1="16.0566" x2="-0.00320688" y2="16.0566" gradientUnits="userSpaceOnUse">
<stop stop-color="#F9575E"/>
<stop offset="0.27" stop-color="#F8555B"/>
<stop offset="0.49" stop-color="#F44F51"/>
<stop offset="0.68" stop-color="#EE4540"/>
<stop offset="0.87" stop-color="#E63728"/>
<stop offset="1" stop-color="#DE2A13"/>
</linearGradient>
<linearGradient id="paint1_linear_7049_98393" x1="-59106.7" y1="49501.9" x2="-59635.4" y2="49372.2" gradientUnits="userSpaceOnUse">
<stop stop-color="#F9575E"/>
<stop offset="0.27" stop-color="#F8555B"/>
<stop offset="0.49" stop-color="#F44F51"/>
<stop offset="0.68" stop-color="#EE4540"/>
<stop offset="0.87" stop-color="#E63728"/>
<stop offset="1" stop-color="#DE2A13"/>
</linearGradient>
</defs>
</svg>
