<svg width="24" height="24" viewBox="0 0 24 24" fill="none" xmlns="http://www.w3.org/2000/svg">
<path d="M2 2V22H22V2H2ZM18.6154 6.7386L17.5425 7.76711C17.45 7.83772 17.4044 7.95351 17.4232 8.06798V15.6241C17.4039 15.7386 17.45 15.8548 17.5425 15.925L18.5899 16.9535V17.1794H13.3215V16.9535L14.4066 15.9C14.5132 15.7934 14.5132 15.7618 14.5132 15.5991V9.49167L11.4961 17.1544H11.0882L7.57544 9.49167V14.6276C7.54605 14.8434 7.61798 15.061 7.76974 15.2171L9.18114 16.9289V17.1548H5.17939V16.9289L6.59079 15.2171C6.74167 15.0605 6.80921 14.8417 6.77281 14.6276V8.6886C6.78947 8.52368 6.72675 8.36053 6.60351 8.24956L5.34912 6.73816V6.51228H9.2443L12.2553 13.1154L14.9022 6.51228H18.6154V6.7386Z" fill="#7A7B85"/>
</svg>
