<svg width="18" height="18" viewBox="0 0 18 18" fill="none" xmlns="http://www.w3.org/2000/svg">
<path d="M8.99954 3.6C8.77122 3.6 8.55226 3.5093 8.39081 3.34786C8.22937 3.18641 8.13867 2.96745 8.13867 2.73913V0.86087C8.13867 0.632553 8.22937 0.413587 8.39081 0.252143C8.55226 0.0906985 8.77122 0 8.99954 0C9.22786 0 9.44682 0.0906985 9.60827 0.252143C9.76971 0.413587 9.86041 0.632553 9.86041 0.86087V2.73913C9.86041 2.96745 9.76971 3.18641 9.60827 3.34786C9.44682 3.5093 9.22786 3.6 8.99954 3.6Z" fill="#E9E9EB"/>
<path d="M8.99954 18.0004C8.77122 18.0004 8.55226 17.9097 8.39081 17.7482C8.22937 17.5868 8.13867 17.3678 8.13867 17.1395V15.2613C8.13867 15.0329 8.22937 14.814 8.39081 14.6525C8.55226 14.4911 8.77122 14.4004 8.99954 14.4004C9.22786 14.4004 9.44682 14.4911 9.60827 14.6525C9.76971 14.814 9.86041 15.0329 9.86041 15.2613V17.1395C9.86041 17.3678 9.76971 17.5868 9.60827 17.7482C9.44682 17.9097 9.22786 18.0004 8.99954 18.0004Z" fill="#E9E9EB"/>
<path d="M13.4272 5.4337C13.2569 5.43368 13.0905 5.3832 12.949 5.28863C12.8075 5.19405 12.6971 5.05965 12.632 4.90239C12.5668 4.74513 12.5497 4.57208 12.5829 4.40512C12.6161 4.23816 12.698 4.08477 12.8183 3.96436L14.1464 2.63627C14.3085 2.47833 14.5264 2.39062 14.7527 2.39211C14.9791 2.3936 15.1957 2.48418 15.3558 2.64423C15.5158 2.80429 15.6064 3.02094 15.6079 3.24729C15.6094 3.47364 15.5217 3.69147 15.3637 3.85362L14.0356 5.1817C13.9558 5.26171 13.861 5.32516 13.7565 5.3684C13.6521 5.41165 13.5402 5.43384 13.4272 5.4337Z" fill="#E9E9EB"/>
<path d="M3.24553 15.6161C3.07526 15.6161 2.90882 15.5656 2.76725 15.471C2.62569 15.3764 2.51537 15.2419 2.45024 15.0846C2.3851 14.9272 2.36809 14.7541 2.40134 14.5872C2.4346 14.4202 2.51662 14.2668 2.63705 14.1464L3.96514 12.8183C4.04468 12.7366 4.13966 12.6716 4.24455 12.6269C4.34944 12.5823 4.46216 12.5589 4.57616 12.5581C4.69016 12.5574 4.80318 12.5793 4.90865 12.6226C5.01412 12.6658 5.10994 12.7296 5.19056 12.8102C5.27117 12.8909 5.33497 12.9867 5.37825 13.0922C5.42153 13.1976 5.44343 13.3106 5.44268 13.4246C5.44193 13.5386 5.41854 13.6514 5.37388 13.7563C5.32921 13.8611 5.26416 13.9561 5.18249 14.0357L3.8544 15.3638C3.77454 15.4439 3.67964 15.5074 3.57515 15.5507C3.47066 15.594 3.35864 15.6163 3.24553 15.6161Z" fill="#E9E9EB"/>
<path d="M17.1395 9.8609H15.2613C15.0329 9.8609 14.814 9.7702 14.6525 9.60876C14.4911 9.44731 14.4004 9.22835 14.4004 9.00003C14.4004 8.77171 14.4911 8.55275 14.6525 8.3913C14.814 8.22986 15.0329 8.13916 15.2613 8.13916H17.1395C17.3678 8.13916 17.5868 8.22986 17.7482 8.3913C17.9097 8.55275 18.0004 8.77171 18.0004 9.00003C18.0004 9.22835 17.9097 9.44731 17.7482 9.60876C17.5868 9.7702 17.3678 9.8609 17.1395 9.8609Z" fill="#E9E9EB"/>
<path d="M2.73913 9.8609H0.86087C0.632553 9.8609 0.413587 9.7702 0.252143 9.60876C0.0906985 9.44731 0 9.22835 0 9.00003C0 8.77171 0.0906985 8.55275 0.252143 8.3913C0.413587 8.22986 0.632553 8.13916 0.86087 8.13916H2.73913C2.96745 8.13916 3.18641 8.22986 3.34786 8.3913C3.5093 8.55275 3.6 8.77171 3.6 9.00003C3.6 9.22835 3.5093 9.44731 3.34786 9.60876C3.18641 9.7702 2.96745 9.8609 2.73913 9.8609Z" fill="#E9E9EB"/>
<path d="M14.7554 15.6162C14.6422 15.6163 14.5302 15.5941 14.4257 15.5508C14.3212 15.5075 14.2263 15.4439 14.1465 15.3638L12.8184 14.0357C12.6605 13.8736 12.5727 13.6558 12.5742 13.4294C12.5757 13.2031 12.6663 12.9864 12.8264 12.8264C12.9864 12.6663 13.2031 12.5757 13.4294 12.5742C13.6558 12.5727 13.8736 12.6605 14.0357 12.8184L15.3638 14.1465C15.4843 14.2669 15.5663 14.4202 15.5995 14.5872C15.6328 14.7542 15.6158 14.9273 15.5506 15.0847C15.4855 15.242 15.3752 15.3764 15.2336 15.4711C15.0921 15.5657 14.9256 15.6162 14.7554 15.6162Z" fill="#E9E9EB"/>
<path d="M4.57332 5.4337C4.46029 5.43392 4.34833 5.41177 4.2439 5.36852C4.13946 5.32527 4.04462 5.26178 3.96484 5.1817L2.63676 3.85362C2.47882 3.69147 2.39111 3.47364 2.3926 3.24729C2.39409 3.02094 2.48467 2.80429 2.64472 2.64423C2.80478 2.48418 3.02143 2.3936 3.24778 2.39211C3.47413 2.39062 3.69195 2.47833 3.8541 2.63627L5.18219 3.96436C5.30251 4.08477 5.38443 4.23816 5.41759 4.40512C5.45075 4.57208 5.43367 4.74513 5.36851 4.90239C5.30334 5.05965 5.19302 5.19405 5.05148 5.28863C4.90995 5.3832 4.74355 5.43368 4.57332 5.4337Z" fill="#E9E9EB"/>
<path d="M8.99912 12.9909C8.20971 12.9909 7.43804 12.7568 6.78167 12.3183C6.1253 11.8797 5.61373 11.2563 5.31163 10.527C5.00954 9.7977 4.9305 8.99518 5.08451 8.22094C5.23851 7.4467 5.61865 6.73552 6.17684 6.17733C6.73503 5.61913 7.44622 5.239 8.22045 5.08499C8.99469 4.93099 9.79721 5.01003 10.5265 5.31212C11.2558 5.61421 11.8792 6.12579 12.3178 6.78216C12.7563 7.43852 12.9904 8.2102 12.9904 8.99961C12.9892 10.0578 12.5683 11.0723 11.82 11.8205C11.0718 12.5688 10.0573 12.9897 8.99912 12.9909Z" fill="#E9E9EB"/>
</svg>
