<svg width="24" height="24" viewBox="0 0 24 24" fill="none" xmlns="http://www.w3.org/2000/svg">
<path d="M22 5.85462C21.2498 6.17351 20.456 6.38361 19.6438 6.47826C20.4974 5.98929 21.1393 5.21246 21.4492 4.29348C20.6421 4.75514 19.7606 5.07905 18.8425 5.25136C18.4559 4.85498 17.9909 4.53964 17.4758 4.32452C16.9607 4.1094 16.4063 3.99899 15.8463 4.00001C13.5788 4.00001 11.7438 5.76902 11.7438 7.94972C11.7421 8.25305 11.7777 8.55547 11.8496 8.85053C10.2236 8.77597 8.63147 8.3702 7.17499 7.6592C5.71852 6.9482 4.42979 5.94762 3.39125 4.72147C3.02691 5.32233 2.83422 6.0079 2.83333 6.70652C2.83333 8.07608 3.56375 9.28667 4.66667 9.99591C4.01322 9.98074 3.37316 9.81155 2.80083 9.50271V9.55162C2.80083 11.4674 4.2175 13.0611 6.0925 13.4239C5.73991 13.5158 5.37657 13.5624 5.01167 13.5625C4.75274 13.5629 4.4944 13.5383 4.24042 13.4891C4.76167 15.0584 6.27875 16.1997 8.07583 16.2323C6.61557 17.3332 4.82276 17.9283 2.97917 17.9239C2.65192 17.9234 2.32499 17.9043 2 17.8668C3.87549 19.0384 6.0556 19.6581 8.28083 19.6521C15.8375 19.6521 19.9658 13.6318 19.9658 8.41032C19.9658 8.23912 19.9613 8.06793 19.9529 7.90081C20.7542 7.34323 21.4474 6.65032 22 5.85462Z" fill="#7A7B85"/>
</svg>
